<?xml version="1.0" encoding="utf-8" standalone="no"?>
<!DOCTYPE svg PUBLIC "-//W3C//DTD SVG 1.1//EN"
  "http://www.w3.org/Graphics/SVG/1.1/DTD/svg11.dtd">
<svg xmlns:xlink="http://www.w3.org/1999/xlink" width="792pt" height="504pt" viewBox="0 0 792 504" xmlns="http://www.w3.org/2000/svg" version="1.1">
 <metadata>
  <rdf:RDF xmlns:dc="http://purl.org/dc/elements/1.1/" xmlns:cc="http://creativecommons.org/ns#" xmlns:rdf="http://www.w3.org/1999/02/22-rdf-syntax-ns#">
   <cc:Work>
    <dc:type rdf:resource="http://purl.org/dc/dcmitype/StillImage"/>
    <dc:date>2026-04-15T15:47:39.239997</dc:date>
    <dc:format>image/svg+xml</dc:format>
    <dc:creator>
     <cc:Agent>
      <dc:title>Matplotlib v3.10.7, https://matplotlib.org/</dc:title>
     </cc:Agent>
    </dc:creator>
   </cc:Work>
  </rdf:RDF>
 </metadata>
 <defs>
  <style type="text/css">*{stroke-linejoin: round; stroke-linecap: butt}</style>
 </defs>
 <g id="figure_1">
  <g id="patch_1">
   <path d="M 0 504 
L 792 504 
L 792 0 
L 0 0 
z
" style="fill: #ffffff"/>
  </g>
  <g id="axes_1">
   <g id="patch_2">
    <path d="M 76.35 456.9 
L 765.585 456.9 
L 765.585 10.8 
L 76.35 10.8 
z
" style="fill: #ffffff"/>
   </g>
   <g id="patch_3">
    <path d="M 76.35 456.9 
L 80.657719 456.9 
L 80.657719 10.8 
L 76.35 10.8 
z
" clip-path="url(#pd0770b9486)" style="fill: #ff4747; opacity: 0.5; stroke: #ff4747; stroke-linejoin: miter"/>
   </g>
   <g id="patch_4">
    <path d="M 76.35 456.9 
L 507.121875 456.9 
L 507.121875 10.8 
L 76.35 10.8 
L 76.35 456.9 
z
" clip-path="url(#pd0770b9486)" style="fill: none; opacity: 0.05"/>
   </g>
   <g id="patch_5">
    <path d="M 507.121875 456.9 
L 765.585 456.9 
L 765.585 10.8 
L 507.121875 10.8 
z
" clip-path="url(#pd0770b9486)" style="fill: #7ed321; opacity: 0.2; stroke: #7ed321; stroke-linejoin: miter"/>
   </g>
   <g id="matplotlib.axis_1">
    <g id="xtick_1">
     <g id="line2d_1">
      <path d="M 76.35 456.9 
L 76.35 10.8 
" clip-path="url(#pd0770b9486)" style="fill: none; stroke-dasharray: 0.8,1.32; stroke-dashoffset: 0; stroke: #b0b0b0; stroke-opacity: 0.7; stroke-width: 0.8"/>
     </g>
     <g id="line2d_2">
      <defs>
       <path id="mc90478042c" d="M 0 0 
L 0 -4 
" style="stroke: #000000; stroke-width: 0.6"/>
      </defs>
      <g>
       <use xlink:href="#mc90478042c" x="76.35" y="456.9" style="stroke: #000000; stroke-width: 0.6"/>
      </g>
     </g>
     <g id="line2d_3">
      <defs>
       <path id="m179a5fc967" d="M 0 0 
L 0 4 
" style="stroke: #000000; stroke-width: 0.6"/>
      </defs>
      <g>
       <use xlink:href="#m179a5fc967" x="76.35" y="10.8" style="stroke: #000000; stroke-width: 0.6"/>
      </g>
     </g>
     <g id="text_1">
      <!-- 0.00 -->
      <g transform="translate(60.764063 471.037812) scale(0.14 -0.14)">
       <defs>
        <path id="DejaVuSans-30" d="M 2034 4250 
Q 1547 4250 1301 3770 
Q 1056 3291 1056 2328 
Q 1056 1369 1301 889 
Q 1547 409 2034 409 
Q 2525 409 2770 889 
Q 3016 1369 3016 2328 
Q 3016 3291 2770 3770 
Q 2525 4250 2034 4250 
z
M 2034 4750 
Q 2819 4750 3233 4129 
Q 3647 3509 3647 2328 
Q 3647 1150 3233 529 
Q 2819 -91 2034 -91 
Q 1250 -91 836 529 
Q 422 1150 422 2328 
Q 422 3509 836 4129 
Q 1250 4750 2034 4750 
z
" transform="scale(0.015625)"/>
        <path id="DejaVuSans-2e" d="M 684 794 
L 1344 794 
L 1344 0 
L 684 0 
L 684 794 
z
" transform="scale(0.015625)"/>
       </defs>
       <use xlink:href="#DejaVuSans-30"/>
       <use xlink:href="#DejaVuSans-2e" transform="translate(63.623047 0)"/>
       <use xlink:href="#DejaVuSans-30" transform="translate(95.410156 0)"/>
       <use xlink:href="#DejaVuSans-30" transform="translate(159.033203 0)"/>
      </g>
     </g>
    </g>
    <g id="xtick_2">
     <g id="line2d_4">
      <path d="M 162.504375 456.9 
L 162.504375 10.8 
" clip-path="url(#pd0770b9486)" style="fill: none; stroke-dasharray: 0.8,1.32; stroke-dashoffset: 0; stroke: #b0b0b0; stroke-opacity: 0.7; stroke-width: 0.8"/>
     </g>
     <g id="line2d_5">
      <g>
       <use xlink:href="#mc90478042c" x="162.504375" y="456.9" style="stroke: #000000; stroke-width: 0.6"/>
      </g>
     </g>
     <g id="line2d_6">
      <g>
       <use xlink:href="#m179a5fc967" x="162.504375" y="10.8" style="stroke: #000000; stroke-width: 0.6"/>
      </g>
     </g>
     <g id="text_2">
      <!-- 0.01 -->
      <g transform="translate(146.918438 471.037812) scale(0.14 -0.14)">
       <defs>
        <path id="DejaVuSans-31" d="M 794 531 
L 1825 531 
L 1825 4091 
L 703 3866 
L 703 4441 
L 1819 4666 
L 2450 4666 
L 2450 531 
L 3481 531 
L 3481 0 
L 794 0 
L 794 531 
z
" transform="scale(0.015625)"/>
       </defs>
       <use xlink:href="#DejaVuSans-30"/>
       <use xlink:href="#DejaVuSans-2e" transform="translate(63.623047 0)"/>
       <use xlink:href="#DejaVuSans-30" transform="translate(95.410156 0)"/>
       <use xlink:href="#DejaVuSans-31" transform="translate(159.033203 0)"/>
      </g>
     </g>
    </g>
    <g id="xtick_3">
     <g id="line2d_7">
      <path d="M 248.65875 456.9 
L 248.65875 10.8 
" clip-path="url(#pd0770b9486)" style="fill: none; stroke-dasharray: 0.8,1.32; stroke-dashoffset: 0; stroke: #b0b0b0; stroke-opacity: 0.7; stroke-width: 0.8"/>
     </g>
     <g id="line2d_8">
      <g>
       <use xlink:href="#mc90478042c" x="248.65875" y="456.9" style="stroke: #000000; stroke-width: 0.6"/>
      </g>
     </g>
     <g id="line2d_9">
      <g>
       <use xlink:href="#m179a5fc967" x="248.65875" y="10.8" style="stroke: #000000; stroke-width: 0.6"/>
      </g>
     </g>
     <g id="text_3">
      <!-- 0.02 -->
      <g transform="translate(233.072812 471.037812) scale(0.14 -0.14)">
       <defs>
        <path id="DejaVuSans-32" d="M 1228 531 
L 3431 531 
L 3431 0 
L 469 0 
L 469 531 
Q 828 903 1448 1529 
Q 2069 2156 2228 2338 
Q 2531 2678 2651 2914 
Q 2772 3150 2772 3378 
Q 2772 3750 2511 3984 
Q 2250 4219 1831 4219 
Q 1534 4219 1204 4116 
Q 875 4013 500 3803 
L 500 4441 
Q 881 4594 1212 4672 
Q 1544 4750 1819 4750 
Q 2544 4750 2975 4387 
Q 3406 4025 3406 3419 
Q 3406 3131 3298 2873 
Q 3191 2616 2906 2266 
Q 2828 2175 2409 1742 
Q 1991 1309 1228 531 
z
" transform="scale(0.015625)"/>
       </defs>
       <use xlink:href="#DejaVuSans-30"/>
       <use xlink:href="#DejaVuSans-2e" transform="translate(63.623047 0)"/>
       <use xlink:href="#DejaVuSans-30" transform="translate(95.410156 0)"/>
       <use xlink:href="#DejaVuSans-32" transform="translate(159.033203 0)"/>
      </g>
     </g>
    </g>
    <g id="xtick_4">
     <g id="line2d_10">
      <path d="M 334.813125 456.9 
L 334.813125 10.8 
" clip-path="url(#pd0770b9486)" style="fill: none; stroke-dasharray: 0.8,1.32; stroke-dashoffset: 0; stroke: #b0b0b0; stroke-opacity: 0.7; stroke-width: 0.8"/>
     </g>
     <g id="line2d_11">
      <g>
       <use xlink:href="#mc90478042c" x="334.813125" y="456.9" style="stroke: #000000; stroke-width: 0.6"/>
      </g>
     </g>
     <g id="line2d_12">
      <g>
       <use xlink:href="#m179a5fc967" x="334.813125" y="10.8" style="stroke: #000000; stroke-width: 0.6"/>
      </g>
     </g>
     <g id="text_4">
      <!-- 0.03 -->
      <g transform="translate(319.227188 471.037812) scale(0.14 -0.14)">
       <defs>
        <path id="DejaVuSans-33" d="M 2597 2516 
Q 3050 2419 3304 2112 
Q 3559 1806 3559 1356 
Q 3559 666 3084 287 
Q 2609 -91 1734 -91 
Q 1441 -91 1130 -33 
Q 819 25 488 141 
L 488 750 
Q 750 597 1062 519 
Q 1375 441 1716 441 
Q 2309 441 2620 675 
Q 2931 909 2931 1356 
Q 2931 1769 2642 2001 
Q 2353 2234 1838 2234 
L 1294 2234 
L 1294 2753 
L 1863 2753 
Q 2328 2753 2575 2939 
Q 2822 3125 2822 3475 
Q 2822 3834 2567 4026 
Q 2313 4219 1838 4219 
Q 1578 4219 1281 4162 
Q 984 4106 628 3988 
L 628 4550 
Q 988 4650 1302 4700 
Q 1616 4750 1894 4750 
Q 2613 4750 3031 4423 
Q 3450 4097 3450 3541 
Q 3450 3153 3228 2886 
Q 3006 2619 2597 2516 
z
" transform="scale(0.015625)"/>
       </defs>
       <use xlink:href="#DejaVuSans-30"/>
       <use xlink:href="#DejaVuSans-2e" transform="translate(63.623047 0)"/>
       <use xlink:href="#DejaVuSans-30" transform="translate(95.410156 0)"/>
       <use xlink:href="#DejaVuSans-33" transform="translate(159.033203 0)"/>
      </g>
     </g>
    </g>
    <g id="xtick_5">
     <g id="line2d_13">
      <path d="M 420.9675 456.9 
L 420.9675 10.8 
" clip-path="url(#pd0770b9486)" style="fill: none; stroke-dasharray: 0.8,1.32; stroke-dashoffset: 0; stroke: #b0b0b0; stroke-opacity: 0.7; stroke-width: 0.8"/>
     </g>
     <g id="line2d_14">
      <g>
       <use xlink:href="#mc90478042c" x="420.9675" y="456.9" style="stroke: #000000; stroke-width: 0.6"/>
      </g>
     </g>
     <g id="line2d_15">
      <g>
       <use xlink:href="#m179a5fc967" x="420.9675" y="10.8" style="stroke: #000000; stroke-width: 0.6"/>
      </g>
     </g>
     <g id="text_5">
      <!-- 0.04 -->
      <g transform="translate(405.381563 471.037812) scale(0.14 -0.14)">
       <defs>
        <path id="DejaVuSans-34" d="M 2419 4116 
L 825 1625 
L 2419 1625 
L 2419 4116 
z
M 2253 4666 
L 3047 4666 
L 3047 1625 
L 3713 1625 
L 3713 1100 
L 3047 1100 
L 3047 0 
L 2419 0 
L 2419 1100 
L 313 1100 
L 313 1709 
L 2253 4666 
z
" transform="scale(0.015625)"/>
       </defs>
       <use xlink:href="#DejaVuSans-30"/>
       <use xlink:href="#DejaVuSans-2e" transform="translate(63.623047 0)"/>
       <use xlink:href="#DejaVuSans-30" transform="translate(95.410156 0)"/>
       <use xlink:href="#DejaVuSans-34" transform="translate(159.033203 0)"/>
      </g>
     </g>
    </g>
    <g id="xtick_6">
     <g id="line2d_16">
      <path d="M 507.121875 456.9 
L 507.121875 10.8 
" clip-path="url(#pd0770b9486)" style="fill: none; stroke-dasharray: 0.8,1.32; stroke-dashoffset: 0; stroke: #b0b0b0; stroke-opacity: 0.7; stroke-width: 0.8"/>
     </g>
     <g id="line2d_17">
      <g>
       <use xlink:href="#mc90478042c" x="507.121875" y="456.9" style="stroke: #000000; stroke-width: 0.6"/>
      </g>
     </g>
     <g id="line2d_18">
      <g>
       <use xlink:href="#m179a5fc967" x="507.121875" y="10.8" style="stroke: #000000; stroke-width: 0.6"/>
      </g>
     </g>
     <g id="text_6">
      <!-- 0.05 -->
      <g transform="translate(491.535938 471.037812) scale(0.14 -0.14)">
       <defs>
        <path id="DejaVuSans-35" d="M 691 4666 
L 3169 4666 
L 3169 4134 
L 1269 4134 
L 1269 2991 
Q 1406 3038 1543 3061 
Q 1681 3084 1819 3084 
Q 2600 3084 3056 2656 
Q 3513 2228 3513 1497 
Q 3513 744 3044 326 
Q 2575 -91 1722 -91 
Q 1428 -91 1123 -41 
Q 819 9 494 109 
L 494 744 
Q 775 591 1075 516 
Q 1375 441 1709 441 
Q 2250 441 2565 725 
Q 2881 1009 2881 1497 
Q 2881 1984 2565 2268 
Q 2250 2553 1709 2553 
Q 1456 2553 1204 2497 
Q 953 2441 691 2322 
L 691 4666 
z
" transform="scale(0.015625)"/>
       </defs>
       <use xlink:href="#DejaVuSans-30"/>
       <use xlink:href="#DejaVuSans-2e" transform="translate(63.623047 0)"/>
       <use xlink:href="#DejaVuSans-30" transform="translate(95.410156 0)"/>
       <use xlink:href="#DejaVuSans-35" transform="translate(159.033203 0)"/>
      </g>
     </g>
    </g>
    <g id="xtick_7">
     <g id="line2d_19">
      <path d="M 593.27625 456.9 
L 593.27625 10.8 
" clip-path="url(#pd0770b9486)" style="fill: none; stroke-dasharray: 0.8,1.32; stroke-dashoffset: 0; stroke: #b0b0b0; stroke-opacity: 0.7; stroke-width: 0.8"/>
     </g>
     <g id="line2d_20">
      <g>
       <use xlink:href="#mc90478042c" x="593.27625" y="456.9" style="stroke: #000000; stroke-width: 0.6"/>
      </g>
     </g>
     <g id="line2d_21">
      <g>
       <use xlink:href="#m179a5fc967" x="593.27625" y="10.8" style="stroke: #000000; stroke-width: 0.6"/>
      </g>
     </g>
     <g id="text_7">
      <!-- 0.06 -->
      <g transform="translate(577.690313 471.037812) scale(0.14 -0.14)">
       <defs>
        <path id="DejaVuSans-36" d="M 2113 2584 
Q 1688 2584 1439 2293 
Q 1191 2003 1191 1497 
Q 1191 994 1439 701 
Q 1688 409 2113 409 
Q 2538 409 2786 701 
Q 3034 994 3034 1497 
Q 3034 2003 2786 2293 
Q 2538 2584 2113 2584 
z
M 3366 4563 
L 3366 3988 
Q 3128 4100 2886 4159 
Q 2644 4219 2406 4219 
Q 1781 4219 1451 3797 
Q 1122 3375 1075 2522 
Q 1259 2794 1537 2939 
Q 1816 3084 2150 3084 
Q 2853 3084 3261 2657 
Q 3669 2231 3669 1497 
Q 3669 778 3244 343 
Q 2819 -91 2113 -91 
Q 1303 -91 875 529 
Q 447 1150 447 2328 
Q 447 3434 972 4092 
Q 1497 4750 2381 4750 
Q 2619 4750 2861 4703 
Q 3103 4656 3366 4563 
z
" transform="scale(0.015625)"/>
       </defs>
       <use xlink:href="#DejaVuSans-30"/>
       <use xlink:href="#DejaVuSans-2e" transform="translate(63.623047 0)"/>
       <use xlink:href="#DejaVuSans-30" transform="translate(95.410156 0)"/>
       <use xlink:href="#DejaVuSans-36" transform="translate(159.033203 0)"/>
      </g>
     </g>
    </g>
    <g id="xtick_8">
     <g id="line2d_22">
      <path d="M 679.430625 456.9 
L 679.430625 10.8 
" clip-path="url(#pd0770b9486)" style="fill: none; stroke-dasharray: 0.8,1.32; stroke-dashoffset: 0; stroke: #b0b0b0; stroke-opacity: 0.7; stroke-width: 0.8"/>
     </g>
     <g id="line2d_23">
      <g>
       <use xlink:href="#mc90478042c" x="679.430625" y="456.9" style="stroke: #000000; stroke-width: 0.6"/>
      </g>
     </g>
     <g id="line2d_24">
      <g>
       <use xlink:href="#m179a5fc967" x="679.430625" y="10.8" style="stroke: #000000; stroke-width: 0.6"/>
      </g>
     </g>
     <g id="text_8">
      <!-- 0.07 -->
      <g transform="translate(663.844688 471.037812) scale(0.14 -0.14)">
       <defs>
        <path id="DejaVuSans-37" d="M 525 4666 
L 3525 4666 
L 3525 4397 
L 1831 0 
L 1172 0 
L 2766 4134 
L 525 4134 
L 525 4666 
z
" transform="scale(0.015625)"/>
       </defs>
       <use xlink:href="#DejaVuSans-30"/>
       <use xlink:href="#DejaVuSans-2e" transform="translate(63.623047 0)"/>
       <use xlink:href="#DejaVuSans-30" transform="translate(95.410156 0)"/>
       <use xlink:href="#DejaVuSans-37" transform="translate(159.033203 0)"/>
      </g>
     </g>
    </g>
    <g id="xtick_9">
     <g id="line2d_25">
      <path d="M 765.585 456.9 
L 765.585 10.8 
" clip-path="url(#pd0770b9486)" style="fill: none; stroke-dasharray: 0.8,1.32; stroke-dashoffset: 0; stroke: #b0b0b0; stroke-opacity: 0.7; stroke-width: 0.8"/>
     </g>
     <g id="line2d_26">
      <g>
       <use xlink:href="#mc90478042c" x="765.585" y="456.9" style="stroke: #000000; stroke-width: 0.6"/>
      </g>
     </g>
     <g id="line2d_27">
      <g>
       <use xlink:href="#m179a5fc967" x="765.585" y="10.8" style="stroke: #000000; stroke-width: 0.6"/>
      </g>
     </g>
     <g id="text_9">
      <!-- 0.08 -->
      <g transform="translate(749.999063 471.037812) scale(0.14 -0.14)">
       <defs>
        <path id="DejaVuSans-38" d="M 2034 2216 
Q 1584 2216 1326 1975 
Q 1069 1734 1069 1313 
Q 1069 891 1326 650 
Q 1584 409 2034 409 
Q 2484 409 2743 651 
Q 3003 894 3003 1313 
Q 3003 1734 2745 1975 
Q 2488 2216 2034 2216 
z
M 1403 2484 
Q 997 2584 770 2862 
Q 544 3141 544 3541 
Q 544 4100 942 4425 
Q 1341 4750 2034 4750 
Q 2731 4750 3128 4425 
Q 3525 4100 3525 3541 
Q 3525 3141 3298 2862 
Q 3072 2584 2669 2484 
Q 3125 2378 3379 2068 
Q 3634 1759 3634 1313 
Q 3634 634 3220 271 
Q 2806 -91 2034 -91 
Q 1263 -91 848 271 
Q 434 634 434 1313 
Q 434 1759 690 2068 
Q 947 2378 1403 2484 
z
M 1172 3481 
Q 1172 3119 1398 2916 
Q 1625 2713 2034 2713 
Q 2441 2713 2670 2916 
Q 2900 3119 2900 3481 
Q 2900 3844 2670 4047 
Q 2441 4250 2034 4250 
Q 1625 4250 1398 4047 
Q 1172 3844 1172 3481 
z
" transform="scale(0.015625)"/>
       </defs>
       <use xlink:href="#DejaVuSans-30"/>
       <use xlink:href="#DejaVuSans-2e" transform="translate(63.623047 0)"/>
       <use xlink:href="#DejaVuSans-30" transform="translate(95.410156 0)"/>
       <use xlink:href="#DejaVuSans-38" transform="translate(159.033203 0)"/>
      </g>
     </g>
    </g>
    <g id="text_10">
     <!-- $Radial\ Position\ x \ [cm]$ -->
     <g transform="translate(344.5275 488.587188) scale(0.14 -0.14)">
      <defs>
       <path id="DejaVuSans-Oblique-52" d="M 1613 4147 
L 1294 2491 
L 2106 2491 
Q 2584 2491 2879 2755 
Q 3175 3019 3175 3444 
Q 3175 3784 2976 3965 
Q 2778 4147 2406 4147 
L 1613 4147 
z
M 2772 2241 
Q 2972 2194 3105 2009 
Q 3238 1825 3413 1275 
L 3809 0 
L 3144 0 
L 2778 1197 
Q 2638 1659 2453 1815 
Q 2269 1972 1888 1972 
L 1191 1972 
L 806 0 
L 172 0 
L 1081 4666 
L 2503 4666 
Q 3150 4666 3495 4373 
Q 3841 4081 3841 3531 
Q 3841 3044 3547 2687 
Q 3253 2331 2772 2241 
z
" transform="scale(0.015625)"/>
       <path id="DejaVuSans-Oblique-61" d="M 3438 1997 
L 3047 0 
L 2472 0 
L 2578 531 
Q 2325 219 2001 64 
Q 1678 -91 1281 -91 
Q 834 -91 548 182 
Q 263 456 263 884 
Q 263 1497 752 1853 
Q 1241 2209 2100 2209 
L 2900 2209 
L 2931 2363 
Q 2938 2388 2941 2417 
Q 2944 2447 2944 2509 
Q 2944 2788 2717 2942 
Q 2491 3097 2081 3097 
Q 1800 3097 1504 3025 
Q 1209 2953 897 2809 
L 997 3341 
Q 1322 3463 1633 3523 
Q 1944 3584 2234 3584 
Q 2853 3584 3176 3315 
Q 3500 3047 3500 2534 
Q 3500 2431 3484 2292 
Q 3469 2153 3438 1997 
z
M 2816 1759 
L 2241 1759 
Q 1534 1759 1195 1570 
Q 856 1381 856 984 
Q 856 709 1029 553 
Q 1203 397 1509 397 
Q 1978 397 2328 733 
Q 2678 1069 2791 1631 
L 2816 1759 
z
" transform="scale(0.015625)"/>
       <path id="DejaVuSans-Oblique-64" d="M 2675 525 
Q 2444 222 2128 65 
Q 1813 -91 1428 -91 
Q 903 -91 598 267 
Q 294 625 294 1247 
Q 294 1766 478 2236 
Q 663 2706 1013 3078 
Q 1244 3325 1534 3454 
Q 1825 3584 2144 3584 
Q 2481 3584 2739 3421 
Q 2997 3259 3138 2956 
L 3513 4863 
L 4091 4863 
L 3144 0 
L 2566 0 
L 2675 525 
z
M 891 1350 
Q 891 897 1095 644 
Q 1300 391 1663 391 
Q 1931 391 2161 520 
Q 2391 650 2566 903 
Q 2750 1166 2856 1509 
Q 2963 1853 2963 2188 
Q 2963 2622 2758 2865 
Q 2553 3109 2194 3109 
Q 1922 3109 1687 2981 
Q 1453 2853 1288 2613 
Q 1106 2353 998 2009 
Q 891 1666 891 1350 
z
" transform="scale(0.015625)"/>
       <path id="DejaVuSans-Oblique-69" d="M 1172 4863 
L 1747 4863 
L 1606 4134 
L 1031 4134 
L 1172 4863 
z
M 909 3500 
L 1484 3500 
L 800 0 
L 225 0 
L 909 3500 
z
" transform="scale(0.015625)"/>
       <path id="DejaVuSans-Oblique-6c" d="M 1172 4863 
L 1747 4863 
L 800 0 
L 225 0 
L 1172 4863 
z
" transform="scale(0.015625)"/>
       <path id="DejaVuSans-Oblique-50" d="M 1081 4666 
L 2541 4666 
Q 3178 4666 3512 4369 
Q 3847 4072 3847 3500 
Q 3847 2731 3353 2303 
Q 2859 1875 1966 1875 
L 1172 1875 
L 806 0 
L 172 0 
L 1081 4666 
z
M 1613 4147 
L 1275 2394 
L 2069 2394 
Q 2606 2394 2893 2669 
Q 3181 2944 3181 3456 
Q 3181 3784 2986 3965 
Q 2791 4147 2438 4147 
L 1613 4147 
z
" transform="scale(0.015625)"/>
       <path id="DejaVuSans-Oblique-6f" d="M 1625 -91 
Q 1009 -91 651 289 
Q 294 669 294 1325 
Q 294 1706 417 2101 
Q 541 2497 738 2766 
Q 1047 3184 1428 3384 
Q 1809 3584 2291 3584 
Q 2888 3584 3255 3212 
Q 3622 2841 3622 2241 
Q 3622 1825 3500 1412 
Q 3378 1000 3181 728 
Q 2875 309 2494 109 
Q 2113 -91 1625 -91 
z
M 891 1344 
Q 891 869 1089 633 
Q 1288 397 1691 397 
Q 2269 397 2648 901 
Q 3028 1406 3028 2181 
Q 3028 2634 2825 2865 
Q 2622 3097 2228 3097 
Q 1903 3097 1650 2945 
Q 1397 2794 1197 2484 
Q 1050 2253 970 1956 
Q 891 1659 891 1344 
z
" transform="scale(0.015625)"/>
       <path id="DejaVuSans-Oblique-73" d="M 3200 3397 
L 3091 2853 
Q 2863 2978 2609 3040 
Q 2356 3103 2088 3103 
Q 1634 3103 1373 2948 
Q 1113 2794 1113 2528 
Q 1113 2219 1719 2053 
Q 1766 2041 1788 2034 
L 1972 1978 
Q 2547 1819 2739 1644 
Q 2931 1469 2931 1166 
Q 2931 609 2489 259 
Q 2047 -91 1331 -91 
Q 1053 -91 747 -37 
Q 441 16 72 128 
L 184 722 
Q 500 559 806 475 
Q 1113 391 1394 391 
Q 1816 391 2080 572 
Q 2344 753 2344 1031 
Q 2344 1331 1650 1516 
L 1591 1531 
L 1394 1581 
Q 956 1697 753 1886 
Q 550 2075 550 2369 
Q 550 2928 970 3256 
Q 1391 3584 2113 3584 
Q 2397 3584 2667 3537 
Q 2938 3491 3200 3397 
z
" transform="scale(0.015625)"/>
       <path id="DejaVuSans-Oblique-74" d="M 2706 3500 
L 2619 3053 
L 1472 3053 
L 1100 1153 
Q 1081 1047 1072 975 
Q 1063 903 1063 863 
Q 1063 663 1183 572 
Q 1303 481 1569 481 
L 2150 481 
L 2053 0 
L 1503 0 
Q 991 0 739 200 
Q 488 400 488 806 
Q 488 878 497 964 
Q 506 1050 525 1153 
L 897 3053 
L 409 3053 
L 500 3500 
L 978 3500 
L 1172 4494 
L 1747 4494 
L 1556 3500 
L 2706 3500 
z
" transform="scale(0.015625)"/>
       <path id="DejaVuSans-Oblique-6e" d="M 3566 2113 
L 3156 0 
L 2578 0 
L 2988 2091 
Q 3016 2238 3031 2350 
Q 3047 2463 3047 2528 
Q 3047 2791 2881 2937 
Q 2716 3084 2419 3084 
Q 1956 3084 1622 2776 
Q 1288 2469 1184 1941 
L 800 0 
L 225 0 
L 903 3500 
L 1478 3500 
L 1363 2950 
Q 1603 3253 1940 3418 
Q 2278 3584 2650 3584 
Q 3113 3584 3367 3334 
Q 3622 3084 3622 2631 
Q 3622 2519 3608 2391 
Q 3594 2263 3566 2113 
z
" transform="scale(0.015625)"/>
       <path id="DejaVuSans-Oblique-78" d="M 3841 3500 
L 2234 1784 
L 3219 0 
L 2559 0 
L 1819 1388 
L 531 0 
L -166 0 
L 1556 1844 
L 641 3500 
L 1300 3500 
L 1972 2234 
L 3144 3500 
L 3841 3500 
z
" transform="scale(0.015625)"/>
       <path id="DejaVuSans-5b" d="M 550 4863 
L 1875 4863 
L 1875 4416 
L 1125 4416 
L 1125 -397 
L 1875 -397 
L 1875 -844 
L 550 -844 
L 550 4863 
z
" transform="scale(0.015625)"/>
       <path id="DejaVuSans-Oblique-63" d="M 3431 3366 
L 3316 2797 
Q 3109 2947 2876 3022 
Q 2644 3097 2394 3097 
Q 2119 3097 1870 3000 
Q 1622 2903 1453 2725 
Q 1184 2453 1037 2087 
Q 891 1722 891 1331 
Q 891 859 1127 628 
Q 1363 397 1844 397 
Q 2081 397 2348 469 
Q 2616 541 2906 684 
L 2797 116 
Q 2547 13 2283 -39 
Q 2019 -91 1741 -91 
Q 1044 -91 669 257 
Q 294 606 294 1253 
Q 294 1797 489 2255 
Q 684 2713 1069 3078 
Q 1331 3328 1684 3456 
Q 2038 3584 2456 3584 
Q 2700 3584 2940 3529 
Q 3181 3475 3431 3366 
z
" transform="scale(0.015625)"/>
       <path id="DejaVuSans-Oblique-6d" d="M 5747 2113 
L 5338 0 
L 4763 0 
L 5166 2094 
Q 5191 2228 5203 2325 
Q 5216 2422 5216 2491 
Q 5216 2772 5059 2928 
Q 4903 3084 4622 3084 
Q 4203 3084 3875 2770 
Q 3547 2456 3450 1953 
L 3066 0 
L 2491 0 
L 2900 2094 
Q 2925 2209 2937 2307 
Q 2950 2406 2950 2484 
Q 2950 2769 2794 2926 
Q 2638 3084 2363 3084 
Q 1938 3084 1609 2770 
Q 1281 2456 1184 1953 
L 800 0 
L 225 0 
L 909 3500 
L 1484 3500 
L 1375 2956 
Q 1609 3263 1923 3423 
Q 2238 3584 2597 3584 
Q 2978 3584 3223 3384 
Q 3469 3184 3519 2828 
Q 3781 3197 4126 3390 
Q 4472 3584 4856 3584 
Q 5306 3584 5551 3325 
Q 5797 3066 5797 2591 
Q 5797 2488 5784 2364 
Q 5772 2241 5747 2113 
z
" transform="scale(0.015625)"/>
       <path id="DejaVuSans-5d" d="M 1947 4863 
L 1947 -844 
L 622 -844 
L 622 -397 
L 1369 -397 
L 1369 4416 
L 622 4416 
L 622 4863 
L 1947 4863 
z
" transform="scale(0.015625)"/>
      </defs>
      <use xlink:href="#DejaVuSans-Oblique-52" transform="translate(0 0.015625)"/>
      <use xlink:href="#DejaVuSans-Oblique-61" transform="translate(69.482422 0.015625)"/>
      <use xlink:href="#DejaVuSans-Oblique-64" transform="translate(130.761719 0.015625)"/>
      <use xlink:href="#DejaVuSans-Oblique-69" transform="translate(194.238281 0.015625)"/>
      <use xlink:href="#DejaVuSans-Oblique-61" transform="translate(222.021484 0.015625)"/>
      <use xlink:href="#DejaVuSans-Oblique-6c" transform="translate(283.300781 0.015625)"/>
      <use xlink:href="#DejaVuSans-Oblique-50" transform="translate(343.554363 0.015625)"/>
      <use xlink:href="#DejaVuSans-Oblique-6f" transform="translate(403.857097 0.015625)"/>
      <use xlink:href="#DejaVuSans-Oblique-73" transform="translate(465.038738 0.015625)"/>
      <use xlink:href="#DejaVuSans-Oblique-69" transform="translate(517.138347 0.015625)"/>
      <use xlink:href="#DejaVuSans-Oblique-74" transform="translate(544.92155 0.015625)"/>
      <use xlink:href="#DejaVuSans-Oblique-69" transform="translate(584.130535 0.015625)"/>
      <use xlink:href="#DejaVuSans-Oblique-6f" transform="translate(611.913738 0.015625)"/>
      <use xlink:href="#DejaVuSans-Oblique-6e" transform="translate(673.095378 0.015625)"/>
      <use xlink:href="#DejaVuSans-Oblique-78" transform="translate(768.944663 0.015625)"/>
      <use xlink:href="#DejaVuSans-5b" transform="translate(860.594729 0.015625)"/>
      <use xlink:href="#DejaVuSans-Oblique-63" transform="translate(899.608401 0.015625)"/>
      <use xlink:href="#DejaVuSans-Oblique-6d" transform="translate(954.58887 0.015625)"/>
      <use xlink:href="#DejaVuSans-5d" transform="translate(1052.000979 0.015625)"/>
     </g>
    </g>
   </g>
   <g id="matplotlib.axis_2">
    <g id="ytick_1">
     <g id="line2d_28">
      <path d="M 76.35 417.782792 
L 765.585 417.782792 
" clip-path="url(#pd0770b9486)" style="fill: none; stroke-dasharray: 0.8,1.32; stroke-dashoffset: 0; stroke: #b0b0b0; stroke-opacity: 0.7; stroke-width: 0.8"/>
     </g>
     <g id="line2d_29">
      <defs>
       <path id="mc6fc8deb0d" d="M 0 0 
L 4 0 
" style="stroke: #000000; stroke-width: 0.6"/>
      </defs>
      <g>
       <use xlink:href="#mc6fc8deb0d" x="76.35" y="417.782792" style="stroke: #000000; stroke-width: 0.6"/>
      </g>
     </g>
     <g id="line2d_30">
      <defs>
       <path id="me32523ea7c" d="M 0 0 
L -4 0 
" style="stroke: #000000; stroke-width: 0.6"/>
      </defs>
      <g>
       <use xlink:href="#me32523ea7c" x="765.585" y="417.782792" style="stroke: #000000; stroke-width: 0.6"/>
      </g>
     </g>
     <g id="text_11">
      <!-- −0.75 -->
      <g transform="translate(29.946563 423.101698) scale(0.14 -0.14)">
       <defs>
        <path id="DejaVuSans-2212" d="M 678 2272 
L 4684 2272 
L 4684 1741 
L 678 1741 
L 678 2272 
z
" transform="scale(0.015625)"/>
       </defs>
       <use xlink:href="#DejaVuSans-2212"/>
       <use xlink:href="#DejaVuSans-30" transform="translate(83.789062 0)"/>
       <use xlink:href="#DejaVuSans-2e" transform="translate(147.412109 0)"/>
       <use xlink:href="#DejaVuSans-37" transform="translate(179.199219 0)"/>
       <use xlink:href="#DejaVuSans-35" transform="translate(242.822266 0)"/>
      </g>
     </g>
    </g>
    <g id="ytick_2">
     <g id="line2d_31">
      <path d="M 76.35 356.472061 
L 765.585 356.472061 
" clip-path="url(#pd0770b9486)" style="fill: none; stroke-dasharray: 0.8,1.32; stroke-dashoffset: 0; stroke: #b0b0b0; stroke-opacity: 0.7; stroke-width: 0.8"/>
     </g>
     <g id="line2d_32">
      <g>
       <use xlink:href="#mc6fc8deb0d" x="76.35" y="356.472061" style="stroke: #000000; stroke-width: 0.6"/>
      </g>
     </g>
     <g id="line2d_33">
      <g>
       <use xlink:href="#me32523ea7c" x="765.585" y="356.472061" style="stroke: #000000; stroke-width: 0.6"/>
      </g>
     </g>
     <g id="text_12">
      <!-- −0.50 -->
      <g transform="translate(29.946563 361.790967) scale(0.14 -0.14)">
       <use xlink:href="#DejaVuSans-2212"/>
       <use xlink:href="#DejaVuSans-30" transform="translate(83.789062 0)"/>
       <use xlink:href="#DejaVuSans-2e" transform="translate(147.412109 0)"/>
       <use xlink:href="#DejaVuSans-35" transform="translate(179.199219 0)"/>
       <use xlink:href="#DejaVuSans-30" transform="translate(242.822266 0)"/>
      </g>
     </g>
    </g>
    <g id="ytick_3">
     <g id="line2d_34">
      <path d="M 76.35 295.16133 
L 765.585 295.16133 
" clip-path="url(#pd0770b9486)" style="fill: none; stroke-dasharray: 0.8,1.32; stroke-dashoffset: 0; stroke: #b0b0b0; stroke-opacity: 0.7; stroke-width: 0.8"/>
     </g>
     <g id="line2d_35">
      <g>
       <use xlink:href="#mc6fc8deb0d" x="76.35" y="295.16133" style="stroke: #000000; stroke-width: 0.6"/>
      </g>
     </g>
     <g id="line2d_36">
      <g>
       <use xlink:href="#me32523ea7c" x="765.585" y="295.16133" style="stroke: #000000; stroke-width: 0.6"/>
      </g>
     </g>
     <g id="text_13">
      <!-- −0.25 -->
      <g transform="translate(29.946563 300.480236) scale(0.14 -0.14)">
       <use xlink:href="#DejaVuSans-2212"/>
       <use xlink:href="#DejaVuSans-30" transform="translate(83.789062 0)"/>
       <use xlink:href="#DejaVuSans-2e" transform="translate(147.412109 0)"/>
       <use xlink:href="#DejaVuSans-32" transform="translate(179.199219 0)"/>
       <use xlink:href="#DejaVuSans-35" transform="translate(242.822266 0)"/>
      </g>
     </g>
    </g>
    <g id="ytick_4">
     <g id="line2d_37">
      <path d="M 76.35 233.850598 
L 765.585 233.850598 
" clip-path="url(#pd0770b9486)" style="fill: none; stroke-dasharray: 0.8,1.32; stroke-dashoffset: 0; stroke: #b0b0b0; stroke-opacity: 0.7; stroke-width: 0.8"/>
     </g>
     <g id="line2d_38">
      <g>
       <use xlink:href="#mc6fc8deb0d" x="76.35" y="233.850598" style="stroke: #000000; stroke-width: 0.6"/>
      </g>
     </g>
     <g id="line2d_39">
      <g>
       <use xlink:href="#me32523ea7c" x="765.585" y="233.850598" style="stroke: #000000; stroke-width: 0.6"/>
      </g>
     </g>
     <g id="text_14">
      <!-- 0.00 -->
      <g transform="translate(41.678125 239.169505) scale(0.14 -0.14)">
       <use xlink:href="#DejaVuSans-30"/>
       <use xlink:href="#DejaVuSans-2e" transform="translate(63.623047 0)"/>
       <use xlink:href="#DejaVuSans-30" transform="translate(95.410156 0)"/>
       <use xlink:href="#DejaVuSans-30" transform="translate(159.033203 0)"/>
      </g>
     </g>
    </g>
    <g id="ytick_5">
     <g id="line2d_40">
      <path d="M 76.35 172.539867 
L 765.585 172.539867 
" clip-path="url(#pd0770b9486)" style="fill: none; stroke-dasharray: 0.8,1.32; stroke-dashoffset: 0; stroke: #b0b0b0; stroke-opacity: 0.7; stroke-width: 0.8"/>
     </g>
     <g id="line2d_41">
      <g>
       <use xlink:href="#mc6fc8deb0d" x="76.35" y="172.539867" style="stroke: #000000; stroke-width: 0.6"/>
      </g>
     </g>
     <g id="line2d_42">
      <g>
       <use xlink:href="#me32523ea7c" x="765.585" y="172.539867" style="stroke: #000000; stroke-width: 0.6"/>
      </g>
     </g>
     <g id="text_15">
      <!-- 0.25 -->
      <g transform="translate(41.678125 177.858773) scale(0.14 -0.14)">
       <use xlink:href="#DejaVuSans-30"/>
       <use xlink:href="#DejaVuSans-2e" transform="translate(63.623047 0)"/>
       <use xlink:href="#DejaVuSans-32" transform="translate(95.410156 0)"/>
       <use xlink:href="#DejaVuSans-35" transform="translate(159.033203 0)"/>
      </g>
     </g>
    </g>
    <g id="ytick_6">
     <g id="line2d_43">
      <path d="M 76.35 111.229136 
L 765.585 111.229136 
" clip-path="url(#pd0770b9486)" style="fill: none; stroke-dasharray: 0.8,1.32; stroke-dashoffset: 0; stroke: #b0b0b0; stroke-opacity: 0.7; stroke-width: 0.8"/>
     </g>
     <g id="line2d_44">
      <g>
       <use xlink:href="#mc6fc8deb0d" x="76.35" y="111.229136" style="stroke: #000000; stroke-width: 0.6"/>
      </g>
     </g>
     <g id="line2d_45">
      <g>
       <use xlink:href="#me32523ea7c" x="765.585" y="111.229136" style="stroke: #000000; stroke-width: 0.6"/>
      </g>
     </g>
     <g id="text_16">
      <!-- 0.50 -->
      <g transform="translate(41.678125 116.548042) scale(0.14 -0.14)">
       <use xlink:href="#DejaVuSans-30"/>
       <use xlink:href="#DejaVuSans-2e" transform="translate(63.623047 0)"/>
       <use xlink:href="#DejaVuSans-35" transform="translate(95.410156 0)"/>
       <use xlink:href="#DejaVuSans-30" transform="translate(159.033203 0)"/>
      </g>
     </g>
    </g>
    <g id="ytick_7">
     <g id="line2d_46">
      <path d="M 76.35 49.918405 
L 765.585 49.918405 
" clip-path="url(#pd0770b9486)" style="fill: none; stroke-dasharray: 0.8,1.32; stroke-dashoffset: 0; stroke: #b0b0b0; stroke-opacity: 0.7; stroke-width: 0.8"/>
     </g>
     <g id="line2d_47">
      <g>
       <use xlink:href="#mc6fc8deb0d" x="76.35" y="49.918405" style="stroke: #000000; stroke-width: 0.6"/>
      </g>
     </g>
     <g id="line2d_48">
      <g>
       <use xlink:href="#me32523ea7c" x="765.585" y="49.918405" style="stroke: #000000; stroke-width: 0.6"/>
      </g>
     </g>
     <g id="text_17">
      <!-- 0.75 -->
      <g transform="translate(41.678125 55.237311) scale(0.14 -0.14)">
       <use xlink:href="#DejaVuSans-30"/>
       <use xlink:href="#DejaVuSans-2e" transform="translate(63.623047 0)"/>
       <use xlink:href="#DejaVuSans-37" transform="translate(95.410156 0)"/>
       <use xlink:href="#DejaVuSans-35" transform="translate(159.033203 0)"/>
      </g>
     </g>
    </g>
    <g id="text_18">
     <!-- $Electric\ Field\ Ez\ [V/m]$ -->
     <g transform="translate(23.035 310.85) rotate(-90) scale(0.14 -0.14)">
      <defs>
       <path id="DejaVuSans-Oblique-45" d="M 1081 4666 
L 4031 4666 
L 3928 4134 
L 1606 4134 
L 1338 2753 
L 3566 2753 
L 3463 2222 
L 1234 2222 
L 909 531 
L 3284 531 
L 3181 0 
L 172 0 
L 1081 4666 
z
" transform="scale(0.015625)"/>
       <path id="DejaVuSans-Oblique-65" d="M 3078 2063 
Q 3088 2113 3092 2166 
Q 3097 2219 3097 2272 
Q 3097 2653 2873 2875 
Q 2650 3097 2266 3097 
Q 1838 3097 1509 2826 
Q 1181 2556 1013 2059 
L 3078 2063 
z
M 3578 1613 
L 903 1613 
Q 884 1494 878 1425 
Q 872 1356 872 1306 
Q 872 872 1139 634 
Q 1406 397 1894 397 
Q 2269 397 2603 481 
Q 2938 566 3225 728 
L 3116 159 
Q 2806 34 2476 -28 
Q 2147 -91 1806 -91 
Q 1078 -91 686 257 
Q 294 606 294 1247 
Q 294 1794 489 2264 
Q 684 2734 1063 3103 
Q 1306 3334 1642 3459 
Q 1978 3584 2356 3584 
Q 2950 3584 3301 3228 
Q 3653 2872 3653 2272 
Q 3653 2128 3634 1964 
Q 3616 1800 3578 1613 
z
" transform="scale(0.015625)"/>
       <path id="DejaVuSans-Oblique-72" d="M 2853 2969 
Q 2766 3016 2653 3041 
Q 2541 3066 2413 3066 
Q 1953 3066 1609 2717 
Q 1266 2369 1153 1784 
L 800 0 
L 225 0 
L 909 3500 
L 1484 3500 
L 1375 2956 
Q 1603 3259 1920 3421 
Q 2238 3584 2597 3584 
Q 2691 3584 2781 3573 
Q 2872 3563 2963 3538 
L 2853 2969 
z
" transform="scale(0.015625)"/>
       <path id="DejaVuSans-Oblique-46" d="M 1081 4666 
L 3756 4666 
L 3653 4134 
L 1606 4134 
L 1338 2759 
L 3188 2759 
L 3084 2228 
L 1234 2228 
L 800 0 
L 172 0 
L 1081 4666 
z
" transform="scale(0.015625)"/>
       <path id="DejaVuSans-Oblique-7a" d="M 744 3500 
L 3475 3500 
L 3372 2975 
L 738 459 
L 2913 459 
L 2822 0 
L -19 0 
L 84 525 
L 2719 3041 
L 653 3041 
L 744 3500 
z
" transform="scale(0.015625)"/>
       <path id="DejaVuSans-Oblique-56" d="M 1319 0 
L 500 4666 
L 1119 4666 
L 1797 653 
L 4063 4666 
L 4750 4666 
L 2053 0 
L 1319 0 
z
" transform="scale(0.015625)"/>
       <path id="DejaVuSans-2f" d="M 1625 4666 
L 2156 4666 
L 531 -594 
L 0 -594 
L 1625 4666 
z
" transform="scale(0.015625)"/>
      </defs>
      <use xlink:href="#DejaVuSans-Oblique-45" transform="translate(0 0.015625)"/>
      <use xlink:href="#DejaVuSans-Oblique-6c" transform="translate(63.183594 0.015625)"/>
      <use xlink:href="#DejaVuSans-Oblique-65" transform="translate(90.966797 0.015625)"/>
      <use xlink:href="#DejaVuSans-Oblique-63" transform="translate(152.490234 0.015625)"/>
      <use xlink:href="#DejaVuSans-Oblique-74" transform="translate(207.470703 0.015625)"/>
      <use xlink:href="#DejaVuSans-Oblique-72" transform="translate(246.679688 0.015625)"/>
      <use xlink:href="#DejaVuSans-Oblique-69" transform="translate(287.792969 0.015625)"/>
      <use xlink:href="#DejaVuSans-Oblique-63" transform="translate(315.576172 0.015625)"/>
      <use xlink:href="#DejaVuSans-Oblique-46" transform="translate(403.027019 0.015625)"/>
      <use xlink:href="#DejaVuSans-Oblique-69" transform="translate(460.54655 0.015625)"/>
      <use xlink:href="#DejaVuSans-Oblique-65" transform="translate(488.329753 0.015625)"/>
      <use xlink:href="#DejaVuSans-Oblique-6c" transform="translate(549.853191 0.015625)"/>
      <use xlink:href="#DejaVuSans-Oblique-64" transform="translate(577.636394 0.015625)"/>
      <use xlink:href="#DejaVuSans-Oblique-45" transform="translate(673.583335 0.015625)"/>
      <use xlink:href="#DejaVuSans-Oblique-7a" transform="translate(736.766929 0.015625)"/>
      <use xlink:href="#DejaVuSans-5b" transform="translate(821.727542 0.015625)"/>
      <use xlink:href="#DejaVuSans-Oblique-56" transform="translate(860.741213 0.015625)"/>
      <use xlink:href="#DejaVuSans-2f" transform="translate(929.149417 0.015625)"/>
      <use xlink:href="#DejaVuSans-Oblique-6d" transform="translate(962.840823 0.015625)"/>
      <use xlink:href="#DejaVuSans-5d" transform="translate(1060.252932 0.015625)"/>
     </g>
    </g>
   </g>
   <g id="line2d_49">
    <path d="M 76.35 150.021429 
L 79.797899 128.814643 
L 82.901008 110.976021 
L 85.659327 96.281924 
L 88.417646 82.819242 
L 90.831176 72.144566 
L 92.899915 63.874484 
L 94.968654 56.460526 
L 97.037394 49.940035 
L 98.761343 45.212636 
L 100.485293 41.145126 
L 101.864452 38.375879 
L 103.243612 36.044315 
L 104.622771 34.155653 
L 106.001931 32.714122 
L 107.036301 31.928384 
L 108.07067 31.396982 
L 109.10504 31.120588 
L 110.13941 31.099548 
L 111.173779 31.333889 
L 112.208149 31.823317 
L 113.242519 32.567214 
L 114.276888 33.564644 
L 115.311258 34.81435 
L 116.690418 36.870289 
L 118.069577 39.36728 
L 119.448737 42.299734 
L 121.172686 46.567575 
L 122.896636 51.490566 
L 124.620585 57.051487 
L 126.689325 64.539113 
L 128.758064 72.879517 
L 131.171593 83.63153 
L 133.585123 95.413225 
L 136.343442 110.03495 
L 139.446551 127.802251 
L 142.89445 148.943272 
L 147.031928 175.852172 
L 152.203777 211.063572 
L 164.961003 298.621978 
L 169.098482 325.15829 
L 172.546381 345.890047 
L 175.64949 363.217211 
L 178.407809 377.394747 
L 180.821338 388.75013 
L 183.234867 399.043752 
L 185.303607 406.968089 
L 187.372346 414.02048 
L 189.096296 419.205637 
L 190.820245 423.74239 
L 192.544195 427.614866 
L 193.923354 430.225386 
L 195.302514 432.396208 
L 196.681673 434.122473 
L 197.716043 435.123068 
L 198.750413 435.870143 
L 199.784782 436.362759 
L 200.819152 436.600294 
L 201.853522 436.58245 
L 202.887891 436.309249 
L 203.922261 435.781034 
L 204.956631 434.998472 
L 205.991001 433.962548 
L 207.37016 432.189498 
L 208.74932 429.972354 
L 210.128479 427.316078 
L 211.507639 424.22662 
L 213.231588 419.766263 
L 214.955538 414.655539 
L 216.679487 408.912327 
L 218.748227 401.214026 
L 220.816966 392.67276 
L 223.230495 381.700154 
L 225.644025 369.714112 
L 228.402344 354.880523 
L 231.505453 336.904766 
L 234.953352 315.571995 
L 239.09083 288.491981 
L 244.607469 250.772592 
L 255.985535 172.598184 
L 260.123014 145.863676 
L 263.570913 124.915503 
L 266.674022 107.356358 
L 269.432341 92.945214 
L 271.84587 81.365971 
L 274.2594 70.831936 
L 276.328139 62.689602 
L 278.396878 55.409361 
L 280.120828 50.027626 
L 281.844777 45.288936 
L 283.568727 41.209871 
L 284.947886 38.431214 
L 286.327046 36.090116 
L 287.706206 34.191818 
L 289.085365 32.74057 
L 290.119735 31.947503 
L 291.154105 31.408749 
L 292.188474 31.124988 
L 293.222844 31.096575 
L 294.257214 31.323548 
L 295.291583 31.80562 
L 296.325953 32.542184 
L 297.360323 33.532311 
L 298.394692 34.774757 
L 299.773852 36.821093 
L 301.153012 39.308592 
L 302.532171 42.231685 
L 304.256121 46.488041 
L 305.98007 51.399826 
L 307.70402 56.949857 
L 309.772759 64.42489 
L 311.841498 72.753275 
L 314.255028 83.492075 
L 316.668557 95.26151 
L 319.426876 109.870504 
L 322.529985 127.625248 
L 325.977884 148.754672 
L 330.115363 175.653148 
L 335.287211 210.857166 
L 348.044437 298.425093 
L 352.181916 324.972762 
L 355.629815 345.716845 
L 358.732924 363.057179 
L 361.491243 377.247948 
L 363.904772 388.615992 
L 366.318302 398.923195 
L 368.387041 406.859835 
L 370.45578 413.925072 
L 372.17973 419.121306 
L 373.903679 423.66943 
L 375.627629 427.553533 
L 377.006788 430.17351 
L 378.385948 432.353906 
L 379.765108 434.089839 
L 380.799477 435.097734 
L 381.833847 435.852142 
L 382.868217 436.352113 
L 383.902586 436.597017 
L 384.936956 436.586545 
L 385.971326 436.320711 
L 387.005695 435.799849 
L 388.040065 435.024617 
L 389.074435 433.995989 
L 390.453594 432.232601 
L 391.832754 430.025021 
L 393.211913 427.378192 
L 394.591073 424.298042 
L 396.315023 419.849093 
L 398.038972 414.749486 
L 399.762921 409.017063 
L 401.831661 401.331222 
L 403.9004 392.801826 
L 406.313929 381.842242 
L 408.727459 369.868249 
L 411.485778 355.047132 
L 414.588887 337.083617 
L 418.036786 315.762068 
L 422.174265 288.692002 
L 427.690903 250.979591 
L 439.068969 172.796246 
L 443.206448 146.05088 
L 446.654347 125.09077 
L 449.757456 107.518782 
L 452.515775 93.094672 
L 454.929305 81.502983 
L 457.342834 70.955561 
L 459.411573 62.801075 
L 461.480313 55.508121 
L 463.549052 49.11343 
L 465.273002 44.494072 
L 466.996951 40.537117 
L 468.376111 37.857865 
L 469.75527 35.617454 
L 471.13443 33.820902 
L 472.168799 32.767228 
L 473.203169 31.966834 
L 474.237539 31.420729 
L 475.271908 31.1296 
L 476.306278 31.093815 
L 477.340648 31.313419 
L 478.375018 31.788135 
L 479.409387 32.517364 
L 480.443757 33.500189 
L 481.478127 34.735372 
L 482.857286 36.772103 
L 484.236446 39.250108 
L 485.615605 42.163836 
L 487.339555 46.408704 
L 489.063504 51.309278 
L 490.787454 56.848414 
L 492.856193 64.310844 
L 494.924932 72.627202 
L 497.338462 83.352777 
L 499.751991 95.109941 
L 502.51031 109.706188 
L 505.613419 127.448356 
L 509.061318 148.567227 
L 512.854007 173.180555 
L 518.025855 208.325964 
L 528.369552 279.020319 
L 532.162241 303.123285 
L 535.26535 321.381865 
L 538.023669 336.204064 
L 540.437199 347.899551 
L 542.505938 356.867425 
L 544.574677 364.778333 
L 546.298627 370.515527 
L 548.022576 375.441295 
L 549.401736 378.780668 
L 550.780895 381.575043 
L 552.160055 383.817853 
L 553.194425 385.135802 
L 554.228794 386.141207 
L 555.263164 386.834811 
L 556.297534 387.218387 
L 557.331903 387.294744 
L 558.366273 387.067717 
L 559.400643 386.542168 
L 560.435013 385.723963 
L 561.469382 384.61996 
L 562.503752 383.237973 
L 563.882911 380.978153 
L 565.262071 378.262976 
L 566.986021 374.268228 
L 568.70997 369.658193 
L 570.778709 363.39999 
L 573.192239 355.241516 
L 575.950558 345.02201 
L 579.398457 331.339017 
L 589.742154 289.62494 
L 592.845263 278.318706 
L 595.603582 269.134113 
L 598.017111 261.864935 
L 600.08585 256.246535 
L 602.15459 251.212381 
L 604.223329 246.766972 
L 606.292069 242.902884 
L 608.016018 240.114127 
L 609.739967 237.701301 
L 611.463917 235.645259 
L 613.187866 233.92376 
L 614.911816 232.512162 
L 616.635765 231.384091 
L 618.359715 230.512103 
L 620.083664 229.868289 
L 622.152404 229.357802 
L 624.221143 229.0891 
L 626.634672 229.022059 
L 629.392991 229.191384 
L 632.84089 229.648666 
L 638.702319 230.707708 
L 646.287696 232.031464 
L 651.804335 232.7505 
L 657.320973 233.238713 
L 663.871981 233.576953 
L 672.491728 233.771838 
L 687.662484 233.845857 
L 765.585 233.850598 
L 765.585 233.850598 
" clip-path="url(#pd0770b9486)" style="fill: none; stroke: #ff8c00; stroke-width: 1.5; stroke-linecap: square"/>
   </g>
   <g id="line2d_50">
    <path d="M 76.35 31.077273 
L 513.888377 31.184803 
L 517.681066 31.485598 
L 520.784175 31.960711 
L 523.542494 32.608628 
L 525.956023 33.383536 
L 528.369552 34.3804 
L 530.783082 35.624507 
L 533.196611 37.139577 
L 535.61014 38.947419 
L 538.023669 41.067576 
L 540.437199 43.516958 
L 542.850728 46.309478 
L 545.264257 49.455694 
L 547.677786 52.962472 
L 550.091316 56.832687 
L 552.849635 61.698837 
L 555.607954 67.028518 
L 558.711063 73.556912 
L 561.814172 80.613827 
L 565.262071 89.014956 
L 569.05476 98.839174 
L 573.881818 112.017391 
L 581.467196 133.514398 
L 588.707784 153.829199 
L 593.190053 165.784857 
L 596.982741 175.310509 
L 600.43064 183.392305 
L 603.533749 190.134869 
L 606.636858 196.335943 
L 609.395178 201.374704 
L 612.153497 205.960522 
L 614.911816 210.094613 
L 617.670135 213.785672 
L 620.083664 216.663838 
L 622.497194 219.228331 
L 624.910723 221.495761 
L 627.324252 223.48491 
L 629.737781 225.216134 
L 632.496101 226.906283 
L 635.25442 228.320055 
L 638.012739 229.489893 
L 641.115848 230.553523 
L 644.218957 231.390545 
L 647.666856 232.101899 
L 651.804335 232.715629 
L 656.631393 233.186891 
L 662.492821 233.520916 
L 670.422989 233.733409 
L 683.869795 233.834702 
L 734.898699 233.850598 
L 765.585 233.850598 
L 765.585 233.850598 
" clip-path="url(#pd0770b9486)" style="fill: none; stroke: #000000; stroke-width: 2.5; stroke-linecap: square"/>
   </g>
   <g id="patch_6">
    <path d="M 76.35 456.9 
L 76.35 10.8 
" style="fill: none; stroke: #000000; stroke-width: 0.8; stroke-linejoin: miter; stroke-linecap: square"/>
   </g>
   <g id="patch_7">
    <path d="M 765.585 456.9 
L 765.585 10.8 
" style="fill: none; stroke: #000000; stroke-width: 0.8; stroke-linejoin: miter; stroke-linecap: square"/>
   </g>
   <g id="patch_8">
    <path d="M 76.35 456.9 
L 765.585 456.9 
" style="fill: none; stroke: #000000; stroke-width: 0.8; stroke-linejoin: miter; stroke-linecap: square"/>
   </g>
   <g id="patch_9">
    <path d="M 76.35 10.8 
L 765.585 10.8 
" style="fill: none; stroke: #000000; stroke-width: 0.8; stroke-linejoin: miter; stroke-linecap: square"/>
   </g>
   <g id="legend_1">
    <g id="patch_10">
     <path d="M 522.385 451.9 
L 758.585 451.9 
Q 760.585 451.9 760.585 449.9 
L 760.585 421.121875 
Q 760.585 419.121875 758.585 419.121875 
L 522.385 419.121875 
Q 520.385 419.121875 520.385 421.121875 
L 520.385 449.9 
Q 520.385 451.9 522.385 451.9 
z
" style="fill: #ffffff; opacity: 0.9; stroke: #cccccc; stroke-linejoin: miter"/>
    </g>
    <g id="patch_11">
     <path d="M 524.385 430.720312 
L 544.385 430.720312 
L 544.385 423.720312 
L 524.385 423.720312 
z
" style="fill: #ff4747; opacity: 0.5; stroke: #ff4747; stroke-linejoin: miter"/>
    </g>
    <g id="text_19">
     <!-- $Antenna (Grill)$ -->
     <g transform="translate(552.385 430.720312) scale(0.1 -0.1)">
      <defs>
       <path id="DejaVuSans-Oblique-41" d="M 2356 4666 
L 3072 4666 
L 3938 0 
L 3278 0 
L 3084 1197 
L 984 1197 
L 325 0 
L -341 0 
L 2356 4666 
z
M 2584 4044 
L 1275 1722 
L 2988 1722 
L 2584 4044 
z
" transform="scale(0.015625)"/>
       <path id="DejaVuSans-28" d="M 1984 4856 
Q 1566 4138 1362 3434 
Q 1159 2731 1159 2009 
Q 1159 1288 1364 580 
Q 1569 -128 1984 -844 
L 1484 -844 
Q 1016 -109 783 600 
Q 550 1309 550 2009 
Q 550 2706 781 3412 
Q 1013 4119 1484 4856 
L 1984 4856 
z
" transform="scale(0.015625)"/>
       <path id="DejaVuSans-Oblique-47" d="M 3494 697 
L 3738 1919 
L 2700 1919 
L 2797 2438 
L 4453 2438 
L 4050 384 
Q 3634 156 3143 32 
Q 2653 -91 2156 -91 
Q 1278 -91 783 396 
Q 288 884 288 1753 
Q 288 2475 589 3126 
Q 891 3778 1422 4213 
Q 1756 4484 2153 4617 
Q 2550 4750 3034 4750 
Q 3472 4750 3873 4639 
Q 4275 4528 4641 4306 
L 4513 3634 
Q 4231 3928 3853 4083 
Q 3475 4238 3047 4238 
Q 2550 4238 2172 4048 
Q 1794 3859 1497 3463 
Q 1244 3125 1098 2667 
Q 953 2209 953 1734 
Q 953 1081 1287 751 
Q 1622 422 2284 422 
Q 2616 422 2925 492 
Q 3234 563 3494 697 
z
" transform="scale(0.015625)"/>
       <path id="DejaVuSans-29" d="M 513 4856 
L 1013 4856 
Q 1481 4119 1714 3412 
Q 1947 2706 1947 2009 
Q 1947 1309 1714 600 
Q 1481 -109 1013 -844 
L 513 -844 
Q 928 -128 1133 580 
Q 1338 1288 1338 2009 
Q 1338 2731 1133 3434 
Q 928 4138 513 4856 
z
" transform="scale(0.015625)"/>
      </defs>
      <use xlink:href="#DejaVuSans-Oblique-41" transform="translate(0 0.015625)"/>
      <use xlink:href="#DejaVuSans-Oblique-6e" transform="translate(68.408203 0.015625)"/>
      <use xlink:href="#DejaVuSans-Oblique-74" transform="translate(131.787109 0.015625)"/>
      <use xlink:href="#DejaVuSans-Oblique-65" transform="translate(170.996094 0.015625)"/>
      <use xlink:href="#DejaVuSans-Oblique-6e" transform="translate(232.519531 0.015625)"/>
      <use xlink:href="#DejaVuSans-Oblique-6e" transform="translate(295.898438 0.015625)"/>
      <use xlink:href="#DejaVuSans-Oblique-61" transform="translate(359.277344 0.015625)"/>
      <use xlink:href="#DejaVuSans-28" transform="translate(420.556641 0.015625)"/>
      <use xlink:href="#DejaVuSans-Oblique-47" transform="translate(459.570312 0.015625)"/>
      <use xlink:href="#DejaVuSans-Oblique-72" transform="translate(537.060547 0.015625)"/>
      <use xlink:href="#DejaVuSans-Oblique-69" transform="translate(578.173828 0.015625)"/>
      <use xlink:href="#DejaVuSans-Oblique-6c" transform="translate(605.957031 0.015625)"/>
      <use xlink:href="#DejaVuSans-Oblique-6c" transform="translate(633.740234 0.015625)"/>
      <use xlink:href="#DejaVuSans-29" transform="translate(661.523438 0.015625)"/>
     </g>
    </g>
    <g id="patch_12">
     <path d="M 524.385 445.4 
L 544.385 445.4 
L 544.385 438.4 
L 524.385 438.4 
z
" style="fill: #7ed321; opacity: 0.2; stroke: #7ed321; stroke-linejoin: miter"/>
    </g>
    <g id="text_20">
     <!-- $PML\ (Absorption)$ -->
     <g transform="translate(552.385 445.4) scale(0.1 -0.1)">
      <defs>
       <path id="DejaVuSans-Oblique-4d" d="M 1081 4666 
L 2028 4666 
L 2572 1522 
L 4378 4666 
L 5350 4666 
L 4441 0 
L 3828 0 
L 4622 4091 
L 2791 897 
L 2175 897 
L 1581 4103 
L 788 0 
L 172 0 
L 1081 4666 
z
" transform="scale(0.015625)"/>
       <path id="DejaVuSans-Oblique-4c" d="M 1075 4666 
L 1709 4666 
L 909 525 
L 3181 525 
L 3078 0 
L 172 0 
L 1075 4666 
z
" transform="scale(0.015625)"/>
       <path id="DejaVuSans-Oblique-62" d="M 3169 2138 
Q 3169 2591 2961 2847 
Q 2753 3103 2388 3103 
Q 2122 3103 1889 2973 
Q 1656 2844 1484 2597 
Q 1303 2338 1198 1995 
Q 1094 1653 1094 1313 
Q 1094 881 1298 636 
Q 1503 391 1863 391 
Q 2134 391 2365 517 
Q 2597 644 2772 891 
Q 2950 1147 3059 1487 
Q 3169 1828 3169 2138 
z
M 1381 2969 
Q 1594 3256 1914 3420 
Q 2234 3584 2584 3584 
Q 3122 3584 3439 3221 
Q 3756 2859 3756 2241 
Q 3756 1734 3570 1259 
Q 3384 784 3041 416 
Q 2816 172 2522 40 
Q 2228 -91 1906 -91 
Q 1566 -91 1316 65 
Q 1066 222 909 531 
L 806 0 
L 231 0 
L 1178 4863 
L 1753 4863 
L 1381 2969 
z
" transform="scale(0.015625)"/>
       <path id="DejaVuSans-Oblique-70" d="M 3175 2156 
Q 3175 2616 2975 2859 
Q 2775 3103 2400 3103 
Q 2144 3103 1911 2972 
Q 1678 2841 1497 2591 
Q 1319 2344 1212 1994 
Q 1106 1644 1106 1300 
Q 1106 863 1306 627 
Q 1506 391 1875 391 
Q 2147 391 2380 519 
Q 2613 647 2778 891 
Q 2956 1147 3065 1494 
Q 3175 1841 3175 2156 
z
M 1394 2969 
Q 1625 3272 1939 3428 
Q 2253 3584 2638 3584 
Q 3175 3584 3472 3232 
Q 3769 2881 3769 2247 
Q 3769 1728 3584 1258 
Q 3400 788 3053 416 
Q 2822 169 2531 39 
Q 2241 -91 1919 -91 
Q 1547 -91 1294 64 
Q 1041 219 916 525 
L 556 -1331 
L -19 -1331 
L 922 3500 
L 1497 3500 
L 1394 2969 
z
" transform="scale(0.015625)"/>
      </defs>
      <use xlink:href="#DejaVuSans-Oblique-50" transform="translate(0 0.015625)"/>
      <use xlink:href="#DejaVuSans-Oblique-4d" transform="translate(60.302734 0.015625)"/>
      <use xlink:href="#DejaVuSans-Oblique-4c" transform="translate(146.582031 0.015625)"/>
      <use xlink:href="#DejaVuSans-28" transform="translate(234.7653 0.015625)"/>
      <use xlink:href="#DejaVuSans-Oblique-41" transform="translate(273.778972 0.015625)"/>
      <use xlink:href="#DejaVuSans-Oblique-62" transform="translate(342.187175 0.015625)"/>
      <use xlink:href="#DejaVuSans-Oblique-73" transform="translate(405.663738 0.015625)"/>
      <use xlink:href="#DejaVuSans-Oblique-6f" transform="translate(457.763347 0.015625)"/>
      <use xlink:href="#DejaVuSans-Oblique-72" transform="translate(518.944988 0.015625)"/>
      <use xlink:href="#DejaVuSans-Oblique-70" transform="translate(560.058269 0.015625)"/>
      <use xlink:href="#DejaVuSans-Oblique-74" transform="translate(623.534832 0.015625)"/>
      <use xlink:href="#DejaVuSans-Oblique-69" transform="translate(662.743816 0.015625)"/>
      <use xlink:href="#DejaVuSans-Oblique-6f" transform="translate(690.527019 0.015625)"/>
      <use xlink:href="#DejaVuSans-Oblique-6e" transform="translate(751.70866 0.015625)"/>
      <use xlink:href="#DejaVuSans-29" transform="translate(815.087566 0.015625)"/>
     </g>
    </g>
    <g id="line2d_51">
     <path d="M 657.885 427.220312 
L 667.885 427.220312 
L 677.885 427.220312 
" style="fill: none; stroke: #ff8c00; stroke-width: 1.5; stroke-linecap: square"/>
    </g>
    <g id="text_21">
     <!-- $FEM\ -\ Re(E_z)$ -->
     <g transform="translate(685.885 430.720312) scale(0.1 -0.1)">
      <use xlink:href="#DejaVuSans-Oblique-46" transform="translate(0 0.125)"/>
      <use xlink:href="#DejaVuSans-Oblique-45" transform="translate(57.519531 0.125)"/>
      <use xlink:href="#DejaVuSans-Oblique-4d" transform="translate(120.703125 0.125)"/>
      <use xlink:href="#DejaVuSans-2212" transform="translate(258.935222 0.125)"/>
      <use xlink:href="#DejaVuSans-Oblique-52" transform="translate(394.677085 0.125)"/>
      <use xlink:href="#DejaVuSans-Oblique-65" transform="translate(464.159507 0.125)"/>
      <use xlink:href="#DejaVuSans-28" transform="translate(525.682944 0.125)"/>
      <use xlink:href="#DejaVuSans-Oblique-45" transform="translate(564.696616 0.125)"/>
      <use xlink:href="#DejaVuSans-Oblique-7a" transform="translate(627.88021 -16.28125) scale(0.7)"/>
      <use xlink:href="#DejaVuSans-29" transform="translate(667.357749 0.125)"/>
     </g>
    </g>
    <g id="line2d_52">
     <path d="M 657.885 442 
L 667.885 442 
L 677.885 442 
" style="fill: none; stroke: #000000; stroke-width: 2.5; stroke-linecap: square"/>
    </g>
    <g id="text_22">
     <!-- $FEM\ -\ |E_z|$ -->
     <g transform="translate(685.885 445.5) scale(0.1 -0.1)">
      <defs>
       <path id="DejaVuSans-7c" d="M 1344 4891 
L 1344 -1509 
L 813 -1509 
L 813 4891 
L 1344 4891 
z
" transform="scale(0.015625)"/>
      </defs>
      <use xlink:href="#DejaVuSans-Oblique-46" transform="translate(0 0.578125)"/>
      <use xlink:href="#DejaVuSans-Oblique-45" transform="translate(57.519531 0.578125)"/>
      <use xlink:href="#DejaVuSans-Oblique-4d" transform="translate(120.703125 0.578125)"/>
      <use xlink:href="#DejaVuSans-2212" transform="translate(258.935222 0.578125)"/>
      <use xlink:href="#DejaVuSans-7c" transform="translate(394.677085 0.578125)"/>
      <use xlink:href="#DejaVuSans-Oblique-45" transform="translate(428.368491 0.578125)"/>
      <use xlink:href="#DejaVuSans-Oblique-7a" transform="translate(491.552085 -15.828125) scale(0.7)"/>
      <use xlink:href="#DejaVuSans-7c" transform="translate(531.029624 0.578125)"/>
     </g>
    </g>
   </g>
  </g>
 </g>
 <defs>
  <clipPath id="pd0770b9486">
   <rect x="76.35" y="10.8" width="689.235" height="446.1"/>
  </clipPath>
 </defs>
</svg>
